<?xml version="1.0" encoding="UTF-8"?>
<svg version="1.1" viewBox="0 0 181.57 232.92" xmlns="http://www.w3.org/2000/svg">
 <defs>
  <style>.cls-1,.cls-40,.cls-55,.cls-66,.cls-68,.cls-69,.cls-70,.cls-71{fill:none;}.cls-13,.cls-2,.cls-20,.cls-48,.cls-7{fill:#f5f5f5;}.cls-13,.cls-2,.cls-7{stroke:#666;}.cls-2{stroke-opacity:0.16;}.cls-10,.cls-12,.cls-13,.cls-2,.cls-5,.cls-68,.cls-7,.cls-8{stroke-width:2px;}.cls-17,.cls-18,.cls-3{isolation:isolate;}.cls-4{fill:#e0e0e0;}.cls-5{fill:#eee;stroke:#bdbdbd;}.cls-38,.cls-6{fill:#9e9e9e;}.cls-7{stroke-opacity:0.11;}.cls-8{fill:#d32f2f;stroke:#b71c1c;}.cls-36,.cls-49,.cls-67,.cls-9{fill:#fff;}.cls-10{fill:#43a047;stroke:#1b5e20;}.cls-11{fill:#1b5e20;}.cls-12{fill:#0288d1;stroke:#01579b;}.cls-13{stroke-opacity:0.12;}.cls-14{fill:#c5edf9;}.cls-15{fill:#0071bc;}.cls-16{fill:#9e8d88;}.cls-17{opacity:0.1;}.cls-18{opacity:0.2;}.cls-19{fill:#ddd;}.cls-21{fill:#b3b3b3;}.cls-22{clip-path:url(#d);}.cls-23{fill:#d99e77;}.cls-23,.cls-24,.cls-25,.cls-26,.cls-27,.cls-28,.cls-29,.cls-30,.cls-31,.cls-32,.cls-42,.cls-43,.cls-45,.cls-46,.cls-47,.cls-48,.cls-49,.cls-52,.cls-54{fill-rule:evenodd;}.cls-24{fill:#a77651;}.cls-25{fill:#999;}.cls-26{fill:#64b5f6;}.cls-27{fill:#1976d2;}.cls-28{fill:#ececec;}.cls-29{fill:#ccc;}.cls-30{fill:#2196f3;}.cls-32{fill:#a76e4a;}.cls-33{clip-path:url(#c);}.cls-34{clip-path:url(#b);}.cls-35{fill:#ffeb3b;stroke-width:0.62px;}.cls-35,.cls-37,.cls-38,.cls-39{stroke:#212121;}.cls-35,.cls-36,.cls-37,.cls-38,.cls-39,.cls-40,.cls-68,.cls-69,.cls-70{stroke-linecap:round;}.cls-35,.cls-36,.cls-37,.cls-38,.cls-39,.cls-40{stroke-linejoin:round;}.cls-36,.cls-40{stroke:#000;stroke-width:0.39px;}.cls-37{fill:#bf360c;stroke-width:0.62px;}.cls-38{stroke-width:0.7px;}.cls-39{fill:#424242;stroke-width:0.3px;}.cls-41{fill:#e3f2fd;}.cls-42{fill:#f4ccb2;}.cls-43{fill:#d9a37b;}.cls-44{clip-path:url(#a);}.cls-45{fill:#deb08d;}.cls-46{fill:#dc322f;fill-opacity:0.94;}.cls-47{fill:#4d4d4d;}.cls-49{fill-opacity:0.48;}.cls-50{fill:#37474f;}.cls-51{fill:#546e7a;}.cls-52{fill:#1a1a1a;}.cls-53{fill:#122812;}.cls-54{fill:#731c24;}.cls-55{stroke:#142a39;stroke-width:0.5px;}.cls-55,.cls-66,.cls-67,.cls-68,.cls-69,.cls-70,.cls-71{stroke-miterlimit:10;}.cls-56{fill:#142a39;}.cls-57{fill:#142a63;}.cls-58{fill:#edb98a;}.cls-59{fill:#35526c;}.cls-60{fill:#f5e0c6;}.cls-61{fill:#3f97d3;}.cls-62{fill:#213f58;}.cls-63{fill:#5d768c;}.cls-64{fill:#27ad61;}.cls-65{fill:#f7931e;}.cls-66{stroke:#2b99d6;}.cls-67{stroke:gray;}.cls-68,.cls-69,.cls-70{stroke:#b3b3b3;}.cls-69{stroke-width:3px;}.cls-70{stroke-width:5px;}.cls-71{stroke:#3fa9f5;}.cls-72{fill:#3fa9f5;}</style>
  <clipPath id="d">
   <rect class="cls-1" x="1005.3" y="689.03" width="159.08" height="228.13" fill="none"/>
  </clipPath>
  <clipPath id="c">
   <rect class="cls-1" x="1096.4" y="814" width="29.08" height="18.9" fill="none"/>
  </clipPath>
  <clipPath id="b">
   <rect class="cls-1" x="1109.8" y="817.37" width="8.63" height="37.21" fill="none"/>
  </clipPath>
  <clipPath id="a">
   <path class="cls-1" d="m342 698.65c-7.95 0.05-15.36 2.39-20.54 8.43-7.27 8.48-10.59 19.31-13.44 24.6-3.61-0.66-8.64-0.4-10 4.89-1.77 7.11-3.53 14.66 0 13.77 1.92-0.47 6.86 3.52 9.4 3.66 2.8 14 7.51 32 30.32 34.73 31.4 3.77 46.47-8.79 47.73-35.17 0.2-4.28 0.54-7.95 0.91-11.16a5.79 5.79 0 0 0 2.25 0.44c6.22 0 6.22-4.45 8-13.33 1.14-5.7-4.32-5.91-8.37-5.33-0.36-3.82-2.07-6.82-6.56-10.82-7.42-6.59-24.58-14.81-39.75-14.71z" fill="none"/>
  </clipPath>
 </defs>
 <title>Zeichenfläche 27</title>
 <g fill-rule="evenodd">
  <path class="cls-23" d="m79.633 94.08c-21.67 12.11-73.82 41.57-71.3 86.95 2.44 43.95 3.83 48.46 3.83 48.46l154-0.87s10.25-123.3-74-132.38c-40.16-4.33-12.52-2.16-12.52-2.16z" fill="#d99e77" data-name="path4556"/>
  <path class="cls-24" d="m70.653 96.65s12.76 9.52 45.2-0.43c0 0 8 20.13-1.84 19.68a50.83 50.83 0 0 1-43.36-19.25z" fill="#a77651" data-name="path4560"/>
  <path class="cls-23" d="m86.243 12.17c-8.71 0-20.68 3.22-26.35 9.16-7.96 8.32-7.73 18.14-10.87 23.32-4-0.65-7.46-0.4-8.91 4.81-2 7 0 6.46 2.4 12.33 0 0 3.13 4.68 5.92 4.82 3.06 13.76 8.22 31.48 33.2 34.17 34.39 3.71 50.9-8.65 52.27-34.61 0.23-4.2 0.59-2.19 1-5.35a7.15 7.15 0 0 0 2.47 0.43c6.81 0 2.81-4.37 4.75-13.11 1.25-5.62-4.57-5-9-4.38-0.39-3.77-3.51-18.2-8.43-22.13-8.13-6.49-21.82-9.59-38.44-9.49z" fill="#d99e77" data-name="path4534"/>
  <path class="cls-32" d="m48.433 66.65c3.06 13.76 8.22 31.48 33.2 34.17 34.39 3.71 50.9-8.65 52.27-34.61 0.23-4.2 0.59-2.19 1-5.35l-2.07-4.4s-7.09 19-9.69 20.32-12.93 3.1-12.93 3.1l-11 4.23s-10.38-2.3-13-1.56-11.85-3.53-11.85-3.53-6.82 1.09-10.07 0.86-15.86-20.23-15.86-20.23l-0.27 7.25" fill="#a76e4a" data-name="path4534"/>
 </g>
 <ellipse cx="68.753" cy="61.17" rx="4.43" ry="3.98" data-name="path4593"/>
 <ellipse cx="112.89" cy="60.86" rx="4.43" ry="3.98" data-name="circle4595"/>
 <g fill-rule="evenodd">
  <path class="cls-23" d="m67.383 102.85c-5.75-0.46 2.53 0.41-0.79 1.7-10 3.88-44.55 12.6-50.14 20.41-21.67 30.28-15.7 107.76-15.7 107.76s25.17-0.94 39.89-0.43l111.44 0.43 23.89-0.43s16.7-70.83-7.86-105.44c-6.1-8.61-36.55-18.2-46.41-22.66-3.54-1.61-1.86-0.84-1.86-0.84s-6.38 13.71-24.68 13.86c-17.37 0.15-28.57-12.66-28.57-12.66z" fill="#d99e77" data-name="path4564"/>
  <path class="cls-23" d="m58.593 107.82a92.19 92.19 0 0 0 16.85 10.35c8.66 4.11 18.93 6 28.79 3.6a29.81 29.81 0 0 0 20.37-16.24l-4.76-2.18s-11 9.83-17.92 11.68c-7.3 2-10.59 1.51-15.65 0-4.17-1.25-20-13-20-13z" fill="#d99e77" data-name="path4640"/>
  <path class="cls-24" d="m34.403 144.01-10.7 88.26h19.85l-1.93-67.92z" fill="#a77651" data-name="path4942"/>
  <path class="cls-32" d="m33.683 140.77c12.65 43 6.81 91.72 6.81 91.72l4.43 0.43s3.7-75.01-11.24-92.15z" fill="#a76e4a" data-name="path4599"/>
  <path class="cls-24" d="m148.74 143.58 10.7 88.25h-19.85l1.92-67.92z" fill="#a77651" data-name="path4438-1"/>
  <path class="cls-32" d="m148.59 142.5c-12.65 41.6-6.82 88.7-6.82 88.7l-4.42 0.42s-3.71-72.55 11.24-89.12z" fill="#a76e4a" data-name="path4642"/>
  <path class="cls-52" d="m43.983 231.24v-55.43l-41.6-5.05c2.18-17.62 6.41-35 14.34-46.13 5.59-7.81 40.19-16.54 50.14-20.41 3.32-1.29-5-2.16 0.79-1.7l-0.79 1.7s11.2 12.81 28.57 12.66c18.3-0.15 24.68-13.86 24.68-13.86s-1.68-0.77 1.86 0.84c9.86 4.46 40.31 14 46.42 22.65 6.77 9.55 10.4 21.85 12.12 34.67 0.51 3.88 0.86 7.81 1.06 11.72l-41.09 6.87s-3.63 26.79-1.53 32.54 0.65 18.79 0.65 18.79z" fill="#1a1a1a" data-name="path4564"/>
  <path class="cls-31" d="m58.863 107.49a92.28 92.28 0 0 0 16.85 10.34c8.67 4.11 18.93 6 28.79 3.61a29.84 29.84 0 0 0 20.37-16.25l-4.71-2.17s-11.09 9.83-18 11.63c-7.29 2-10.59 1.52-15.65 0-4.17-1.24-20-13-20-13z" data-name="path4640"/>
  <path class="cls-31" d="m33.953 140.44c12.65 43 6.81 91.72 6.81 91.72l4.43 0.42s1.54-31.15-1.37-57.88c-1.6-14.76-4.56-28.17-9.87-34.26z" data-name="path4599"/>
  <path class="cls-31" d="m148.86 142.17c-12.65 41.59-6.81 88.7-6.81 88.7l-4.43 0.41s-3.71-72.54 11.24-89.11z" data-name="path4642"/>
  <path class="cls-31" d="m48.163 66.9s-0.9-21.74-1.38-31.69 0.82-13.38 5.15-19.87c4.33-6.49 16.52-12.58 23.74-13.44s28.41-0.87 35.15 1.73 15.89 7.35 18.78 11.68 4.31 32.86 2.94 44.25c-0.07 0.65-2-13-6.36-18.1s1.89-12.9-0.52-13.55c-4.81-1.3-16.69 4.81-36.43 3.08-19.74-1.73-32.66-5.14-33.62-2.55s3.31 9.76 0.23 11.7c-7.5 4.74-7.68 26.76-7.68 26.76z" data-name="path4672"/>
  <path class="cls-32" d="m74.993 79.09s-0.42 0.18 7-0.36 8 1.8 10.3 2 4.93-0.82 7.6-0.42c2.67 0.4 7.81 1 7.81 1-9.37 4.63-21.9 3.4-32.76-2.16z" fill="#a76e4a" data-name="path4688"/>
  <path class="cls-31" d="m74.393 79.01s17.21 8.16 32.85 1.85c0 0 1.46 0.78-0.28-4.09 1.62 0.58 4.71 5 4.71 5l-2.81-0.89s-15.48 14.56-34.47-1.92z" data-name="path4694"/>
  <path class="cls-31" d="m78.973 52.9 0.76 6.75a15.1 15.1 0 0 0-8.66-5.49c-5.59-1.13-12.46 1.88-12.46 1.88-3.8-0.94 7.08-8.78 13.48-6.62s6.88 3.48 6.88 3.48z" data-name="path4678"/>
  <path class="cls-31" d="m103.73 49.99-0.89 6.58a15.1 15.1 0 0 1 8.66-5.49c5.59-1.13 12.46 1.88 12.46 1.88 3.81-0.94-7.07-8.78-13.47-6.62s-6.76 3.65-6.76 3.65z" data-name="path4684"/>
 </g>
 <ellipse class="cls-53" cx="88.903" cy="1.38" rx="3.78" ry="1.38" fill="#122812"/>
 <path class="cls-52" d="m132.84 38.91c-0.38-11.21-1.48-21-3.23-23.6-2.89-4.33-12-9.09-18.78-11.68s-27.93-2.6-35.15-1.73-19.4 7-23.74 13.44c-4.34 6.44-5.63 13.92-5.15 23.87 0.1 2.17 0.1-1 0.23 1.9 0 0 14.54 1 42.75 1.7 20.79 0.51 43.07-3.9 43.07-3.9z" fill="#1a1a1a" fill-rule="evenodd" data-name="path4672"/>
 <path class="cls-54" d="m136.9 44.76c-3 4.54-85.24 8.35-94.32 2-3-2.11 5.59-5.59 5.59-5.59s13.51 0.16 41.71 0.85a249.82 249.82 0 0 0 40.59-2.7s7.69 3.48 6.43 5.44z" fill="#731c24" fill-rule="evenodd" data-name="path4672"/>
 <line class="cls-55" x1="88.903" x2="89.883" y1="2.76" y2="42.04" fill="none" stroke="#142a39" stroke-miterlimit="10" stroke-width=".5px"/>
 <circle class="cls-56" cx="77.713" cy="9.91" r="1" fill="#142a39"/>
 <circle class="cls-56" cx="100.18" cy="9.91" r="1" fill="#142a39"/>
</svg>
