<?xml version="1.0" encoding="iso-8859-1"?>
<!-- Generator: Adobe Illustrator 19.0.0, SVG Export Plug-In . SVG Version: 6.00 Build 0)  -->
<svg version="1.1" id="Layer_1" xmlns="http://www.w3.org/2000/svg" xmlns:xlink="http://www.w3.org/1999/xlink" x="0px" y="0px"
	 viewBox="0 0 512 512" style="enable-background:new 0 0 512 512;" xml:space="preserve">
<rect x="93.528" y="204.693" style="fill:#AFB9D2;" width="51.307" height="34.205"/>
<path style="fill:#EBC9A0;" d="M495.432,273.101H16.568c-4.722,0-8.551-3.829-8.551-8.551v-17.102c0-4.722,3.829-8.551,8.551-8.551
	h478.864c4.722,0,8.551,3.829,8.551,8.551v17.102C503.983,269.273,500.155,273.101,495.432,273.101z"/>
<path style="fill:#464655;" d="M213.244,170.487H25.119V84.975c0-9.446,7.656-17.102,17.102-17.102h153.921
	c9.446,0,17.102,7.656,17.102,17.102V170.487z"/>
<rect x="247.449" y="204.693" style="fill:#FF5050;" width="136.818" height="34.205"/>
<rect x="264.551" y="170.488" style="fill:#FFDC64;" width="102.614" height="34.205"/>
<rect x="247.449" y="136.283" style="fill:#00C3FF;" width="119.716" height="34.205"/>
<rect x="264.551" y="102.079" style="fill:#7DF5A5;" width="85.511" height="34.205"/>
<circle style="fill:#00C3FF;" cx="461.655" cy="144.407" r="34.634"/>
<path style="fill:#C7CFE2;" d="M213.244,187.589v-17.102H25.119v17.102c0,9.445,7.658,17.102,17.102,17.102h153.921
	C205.587,204.691,213.244,197.035,213.244,187.589z"/>
<path style="fill:#00AAF0;" d="M480.511,160.184c-19.128,0-34.634-15.506-34.634-34.634c0-4.664,0.95-9.098,2.622-13.159
	c-12.595,5.183-21.476,17.548-21.476,32.013c0,19.128,15.506,34.634,34.634,34.634c14.464,0,26.829-8.88,32.012-21.475
	C489.609,159.234,485.175,160.184,480.511,160.184z"/>
<path d="M495.432,230.879h-25.758v-19.085c15.095-1.766,29.069-8.486,39.978-19.396c3.131-3.131,3.131-8.207,0-11.337
	c-3.131-3.131-8.207-3.131-11.337,0c-9.792,9.792-22.81,15.185-36.658,15.185c-13.848,0-26.866-5.393-36.657-15.185
	c-9.791-9.792-15.185-22.81-15.185-36.657c0-13.848,5.393-26.866,15.185-36.658c3.131-3.131,3.131-8.207,0-11.337
	c-3.13-3.131-8.206-3.131-11.337,0c-12.82,12.819-19.88,29.864-19.88,47.994c0,18.13,7.06,35.175,19.88,47.994
	c10.909,10.91,24.883,17.629,39.978,19.396v19.085h-61.358v-26.188c0-4.427-3.589-8.017-8.017-8.017h-9.086v-26.188v-34.205
	c0-4.427-3.589-8.017-8.017-8.017h-9.086v-26.188c0-4.427-3.589-8.017-8.017-8.017h-85.512c-4.427,0-8.017,3.589-8.017,8.017v26.188
	h-9.086c-4.427,0-8.017,3.589-8.017,8.017v34.205c0,4.427,3.589,8.017,8.017,8.017h9.086v18.171h-9.086
	c-4.427,0-8.017,3.589-8.017,8.017v26.188h-86.58v-18.171h43.29c13.851,0,25.119-11.268,25.119-25.119V84.976
	c0-13.851-11.268-25.119-25.119-25.119H42.221c-13.851,0-25.119,11.268-25.119,25.119V187.59c0,13.851,11.268,25.119,25.119,25.119
	h43.29v18.171H16.568C7.432,230.88,0,238.312,0,247.448v17.102c0,9.136,7.432,16.568,16.568,16.568h32.976L17.258,442.552
	c-0.868,4.342,1.948,8.565,6.289,9.433c0.531,0.106,1.059,0.157,1.581,0.157c3.743,0,7.09-2.635,7.853-6.447l32.916-164.579h380.209
	l32.916,164.579c0.762,3.811,4.11,6.447,7.853,6.447c0.521,0,1.05-0.051,1.581-0.157c4.342-0.869,7.157-5.092,6.289-9.433
	l-32.287-161.434h32.974c9.136,0,16.568-7.432,16.568-16.568v-17.102C512,238.311,504.568,230.879,495.432,230.879z
	 M272.568,110.094h69.478v18.171h-69.478V110.094z M255.466,144.299h9.086h85.512h9.086v18.171h-94.597h-9.086V144.299z
	 M272.568,178.504h86.58v18.171h-86.58V178.504z M255.466,212.708h9.086h102.614h9.086v18.171H255.466V212.708z M42.221,75.89
	h153.921c5.01,0,9.086,4.076,9.086,9.086v77.495H33.136V84.975C33.136,79.966,37.211,75.89,42.221,75.89z M33.136,187.589v-9.086
	h172.092v9.086c0,5.01-4.076,9.086-9.086,9.086H42.221C37.211,196.675,33.136,192.599,33.136,187.589z M101.545,212.708h35.273
	v18.171h-35.273V212.708z M495.967,264.55c0,0.295-0.239,0.534-0.534,0.534H16.568c-0.295,0-0.534-0.239-0.534-0.534v-17.102
	c0-0.295,0.239-0.534,0.534-0.534h478.864c0.295,0,0.534,0.239,0.534,0.534V264.55z"/>
<path d="M461.657,186.625c23.281,0,42.221-18.941,42.221-42.221s-18.941-42.221-42.221-42.221c-23.28,0-42.221,18.941-42.221,42.221
	S438.377,186.625,461.657,186.625z M461.657,118.216c14.44,0,26.188,11.748,26.188,26.188s-11.748,26.188-26.188,26.188
	c-14.44,0-26.188-11.748-26.188-26.188S447.218,118.216,461.657,118.216z"/>
<g>
</g>
<g>
</g>
<g>
</g>
<g>
</g>
<g>
</g>
<g>
</g>
<g>
</g>
<g>
</g>
<g>
</g>
<g>
</g>
<g>
</g>
<g>
</g>
<g>
</g>
<g>
</g>
<g>
</g>
</svg>
