<?xml version="1.0" encoding="iso-8859-1"?>
<!-- Generator: Adobe Illustrator 19.0.0, SVG Export Plug-In . SVG Version: 6.00 Build 0)  -->
<svg version="1.1" id="Layer_1" xmlns="http://www.w3.org/2000/svg" xmlns:xlink="http://www.w3.org/1999/xlink" x="0px" y="0px"
	 viewBox="0 0 512 512" style="enable-background:new 0 0 512 512;" xml:space="preserve">
<path style="fill:#FFA30C;" d="M79.021,120.551c-71.706,26.357-91.91,118.18-37.889,172.2l178.115,178.115
	c54.02,54.02,145.843,33.817,172.2-37.889l0.775-2.111L81.132,119.776L79.021,120.551z"/>
<path style="fill:#FFFFFF;" d="M494.969,151.343C525.741,67.627,444.374-13.74,360.658,17.031l-94.047,34.568L460.4,245.388
	L494.969,151.343z"/>
<polygon style="fill:#FF6700;" points="266.611,51.6 81.132,119.776 392.225,430.868 460.4,245.389 "/>
<path d="M428.153,223.591c-2.675,0-5.349-1.02-7.39-3.061l-0.095-0.095c-4.081-4.081-4.081-10.698,0-14.78
	c4.082-4.081,10.697-4.081,14.78,0l0.095,0.095c4.081,4.081,4.081,10.698,0,14.78C433.502,222.571,430.828,223.591,428.153,223.591z
	"/>
<path d="M458.204,120.491c-5.142,0-9.623-3.796-10.341-9.032c-2.242-16.349-12.23-31.309-26.721-40.018
	c-14.389-8.648-31.153-10.162-47.204-4.263c-5.415,1.991-11.422-0.786-13.414-6.204c-1.991-5.418,0.786-11.422,6.203-13.414
	c22.113-8.126,45.261-6.007,65.182,5.966c19.864,11.939,33.569,32.534,36.661,55.095c0.784,5.718-3.216,10.989-8.934,11.772
	C459.155,120.459,458.676,120.491,458.204,120.491z"/>
<path d="M317.858,365.45c-2.684,0-5.367-1.027-7.409-3.081l-0.095-0.095c-4.07-4.092-4.053-10.71,0.04-14.779
	c4.09-4.069,10.709-4.054,14.779,0.04l0.095,0.095c4.07,4.092,4.053,10.71-0.04,14.779
	C323.189,364.438,320.523,365.45,317.858,365.45z"/>
<path d="M454.633,152.118c-2.675,0-5.349-1.02-7.39-3.061l-0.095-0.095c-4.081-4.081-4.081-10.698,0-14.78
	c4.082-4.081,10.697-4.081,14.78,0l0.095,0.095c4.081,4.081,4.081,10.698,0,14.78C459.981,151.098,457.307,152.118,454.633,152.118z
	"/>
<path d="M478.136,33.865c-32.09-32.09-78.483-42.299-121.083-26.642L75.417,110.743c-37.037,13.614-64.213,44.75-72.693,83.289
	s3.115,78.206,31.019,106.111l178.115,178.115C233.748,500.147,262.872,512,293.017,512c8.282,0,16.644-0.896,24.95-2.723
	c38.539-8.48,69.675-35.655,83.289-72.693l103.52-281.635C520.434,112.352,510.226,65.956,478.136,33.865z M485.16,147.737
	l-96.701,263.086l-38.938-38.938c-4.082-4.081-10.697-4.081-14.78,0c-4.081,4.081-4.081,10.698,0,14.78l45.728,45.728
	c-11.689,28.765-36.51,49.765-66.993,56.472c-31.537,6.939-64.003-2.55-86.839-25.386L48.522,285.363
	c-22.836-22.836-32.326-55.3-25.385-86.84c6.707-30.483,27.707-55.304,56.472-66.992l207.322,207.322
	c2.041,2.04,4.715,3.061,7.39,3.061s5.349-1.021,7.39-3.061c4.081-4.081,4.081-10.698,0-14.78L101.178,123.542l162.767-59.829
	l133.281,133.281c2.041,2.041,4.715,3.061,7.39,3.061c2.674,0,5.349-1.02,7.39-3.061c4.081-4.081,4.081-10.698,0-14.78
	L285.56,55.769l78.703-28.929c10.811-3.974,21.915-5.911,32.882-5.911c24.398,0,48.093,9.597,66.211,27.715
	C489.619,74.906,497.973,112.877,485.16,147.737z"/>
<g>
</g>
<g>
</g>
<g>
</g>
<g>
</g>
<g>
</g>
<g>
</g>
<g>
</g>
<g>
</g>
<g>
</g>
<g>
</g>
<g>
</g>
<g>
</g>
<g>
</g>
<g>
</g>
<g>
</g>
</svg>
