<?xml version="1.0" encoding="iso-8859-1"?>
<!-- Generator: Adobe Illustrator 19.0.0, SVG Export Plug-In . SVG Version: 6.00 Build 0)  -->
<svg version="1.1" id="Layer_1" xmlns="http://www.w3.org/2000/svg" xmlns:xlink="http://www.w3.org/1999/xlink" x="0px" y="0px"
	 viewBox="0 0 512.568 512.568" style="enable-background:new 0 0 512.568 512.568;" xml:space="preserve">
<g transform="translate(1 1)">
	<polygon style="fill:#3DB9F9;" points="502.456,333.386 157.941,333.386 85.914,472.233 424.355,472.233 	"/>
	<polygon style="fill:#63D3FD;" points="476.422,333.386 157.941,333.386 85.914,472.233 398.321,472.233 	"/>
	<polygon style="fill:#FFA800;" points="328.897,38.335 172.694,38.335 337.575,333.386 502.456,333.386 	"/>
	<polygon style="fill:#FFE100;" points="302.863,38.335 181.372,38.335 346.253,333.386 476.422,333.386 	"/>
	<polygon style="fill:#FFFFFF;" points="172.694,38.335 7.812,316.03 85.914,472.233 244.721,166.769 	"/>
	<polygon style="fill:#00DA6C;" points="181.372,64.369 33.846,316.03 85.914,472.233 242.117,166.769 	"/>
	<path d="M424.355,480.911H85.914c-2.603,0-6.075-1.736-7.81-4.339c-1.736-2.603-1.736-6.075,0-8.678l72.027-138.847
		c1.736-2.603,4.339-4.339,7.81-4.339h344.515c3.471,0,6.075,1.736,7.81,4.339c1.736,2.603,1.736,6.075,0,8.678l-78.102,138.847
		C430.429,479.176,427.826,480.911,424.355,480.911z M99.799,463.555h319.349l68.556-121.492H163.148L99.799,463.555z"/>
	<path d="M85.914,480.911L85.914,480.911c-3.471,0-6.075-1.736-7.81-5.207L0.002,319.501c-1.736-2.603-0.868-6.075,0-8.678
		L164.883,33.128c1.736-1.736,4.339-3.471,7.81-3.471l0,0c3.471,0,6.075,1.736,7.81,4.339l72.027,128.434
		c1.736,2.603,1.736,6.075,0,7.81L93.724,476.572C91.988,479.176,89.385,480.911,85.914,480.911z M17.358,316.03l68.556,137.112
		l148.393-285.505L172.694,55.691L17.358,316.03z"/>
	<path d="M502.456,342.064H337.575c-3.471,0-6.075-1.736-7.81-4.339L164.883,42.674c-1.736-2.603-1.736-6.075,0-8.678
		c1.736-2.603,4.339-4.339,7.81-4.339h156.203c3.471,0,6.075,1.736,7.81,4.339l173.559,295.051c1.736,2.603,1.736,6.075,0,8.678
		C508.531,340.328,505.927,342.064,502.456,342.064z M342.782,324.708h144.922L323.69,47.013H187.446L342.782,324.708z"/>
</g>
<g>
</g>
<g>
</g>
<g>
</g>
<g>
</g>
<g>
</g>
<g>
</g>
<g>
</g>
<g>
</g>
<g>
</g>
<g>
</g>
<g>
</g>
<g>
</g>
<g>
</g>
<g>
</g>
<g>
</g>
</svg>
